<?xml version="1.0" encoding="UTF-8" standalone="no"?><svg xmlns="http://www.w3.org/2000/svg" xmlns:xlink="http://www.w3.org/1999/xlink" contentScriptType="application/ecmascript" contentStyleType="text/css" height="2095px" preserveAspectRatio="none" style="width:3459px;height:2095px;" version="1.1" viewBox="0 0 3459 2095" width="3459px" zoomAndPan="magnify"><defs><filter height="300%" id="fkcknukm9rv0a" width="300%" x="-1" y="-1"><feGaussianBlur result="blurOut" stdDeviation="2.0"/><feColorMatrix in="blurOut" result="blurOut2" type="matrix" values="0 0 0 0 0 0 0 0 0 0 0 0 0 0 0 0 0 0 .4 0"/><feOffset dx="4.0" dy="4.0" in="blurOut2" result="blurOut3"/><feBlend in="SourceGraphic" in2="blurOut3" mode="normal"/></filter></defs><g><rect fill="#FFFFFF" filter="url(#fkcknukm9rv0a)" height="29.1328" style="stroke: #A80036; stroke-width: 1.0;" width="10" x="65.5" y="117.4297"/><rect fill="#FFFFFF" filter="url(#fkcknukm9rv0a)" height="29.1328" style="stroke: #A80036; stroke-width: 1.0;" width="10" x="65.5" y="1960.9375"/><rect fill="#FFFFFF" filter="url(#fkcknukm9rv0a)" height="203.9297" style="stroke: #A80036; stroke-width: 1.0;" width="10" x="160" y="146.5625"/><line style="stroke: #A80036; stroke-width: 1.0; stroke-dasharray: 5.0,5.0;" x1="70" x2="70" y1="86.2969" y2="2008.0703"/><line style="stroke: #A80036; stroke-width: 1.0; stroke-dasharray: 5.0,5.0;" x1="165" x2="165" y1="86.2969" y2="2008.0703"/><line style="stroke: #A80036; stroke-width: 1.0; stroke-dasharray: 5.0,5.0;" x1="356" x2="356" y1="86.2969" y2="2008.0703"/><line style="stroke: #A80036; stroke-width: 1.0; stroke-dasharray: 5.0,5.0;" x1="571" x2="571" y1="86.2969" y2="2008.0703"/><line style="stroke: #A80036; stroke-width: 1.0; stroke-dasharray: 5.0,5.0;" x1="902.5" x2="902.5" y1="86.2969" y2="2008.0703"/><line style="stroke: #A80036; stroke-width: 1.0; stroke-dasharray: 5.0,5.0;" x1="1485.5" x2="1485.5" y1="86.2969" y2="2008.0703"/><line style="stroke: #A80036; stroke-width: 1.0; stroke-dasharray: 5.0,5.0;" x1="2178.5" x2="2178.5" y1="86.2969" y2="2008.0703"/><line style="stroke: #A80036; stroke-width: 1.0; stroke-dasharray: 5.0,5.0;" x1="2547.5" x2="2547.5" y1="86.2969" y2="2008.0703"/><line style="stroke: #A80036; stroke-width: 1.0; stroke-dasharray: 5.0,5.0;" x1="2951.5" x2="2951.5" y1="86.2969" y2="2008.0703"/><rect fill="#FEFECE" filter="url(#fkcknukm9rv0a)" height="30.2969" style="stroke: #A80036; stroke-width: 1.5;" width="121" x="8" y="51"/><text fill="#000000" font-family="sans-serif" font-size="14" lengthAdjust="spacingAndGlyphs" textLength="107" x="15" y="70.9951">windsor project</text><rect fill="#FEFECE" filter="url(#fkcknukm9rv0a)" height="30.2969" style="stroke: #A80036; stroke-width: 1.5;" width="121" x="8" y="2007.0703"/><text fill="#000000" font-family="sans-serif" font-size="14" lengthAdjust="spacingAndGlyphs" textLength="107" x="15" y="2027.0654">windsor project</text><rect fill="#FEFECE" filter="url(#fkcknukm9rv0a)" height="30.2969" style="stroke: #A80036; stroke-width: 1.5;" width="40" x="143" y="51"/><text fill="#000000" font-family="sans-serif" font-size="14" lengthAdjust="spacingAndGlyphs" textLength="26" x="150" y="70.9951">role</text><rect fill="#FEFECE" filter="url(#fkcknukm9rv0a)" height="30.2969" style="stroke: #A80036; stroke-width: 1.5;" width="40" x="143" y="2007.0703"/><text fill="#000000" font-family="sans-serif" font-size="14" lengthAdjust="spacingAndGlyphs" textLength="26" x="150" y="2027.0654">role</text><text fill="#000000" font-family="sans-serif" font-size="14" lengthAdjust="spacingAndGlyphs" textLength="20" x="343" y="82.9951">vel</text><ellipse cx="356" cy="13" fill="#FEFECE" filter="url(#fkcknukm9rv0a)" rx="8" ry="8" style="stroke: #A80036; stroke-width: 2.0;"/><path d="M356,21 L356,48 M343,29 L369,29 M356,48 L343,63 M356,48 L369,63 " fill="none" filter="url(#fkcknukm9rv0a)" style="stroke: #A80036; stroke-width: 2.0;"/><text fill="#000000" font-family="sans-serif" font-size="14" lengthAdjust="spacingAndGlyphs" textLength="20" x="343" y="2020.0654">vel</text><ellipse cx="356" cy="2033.3672" fill="#FEFECE" filter="url(#fkcknukm9rv0a)" rx="8" ry="8" style="stroke: #A80036; stroke-width: 2.0;"/><path d="M356,2041.3672 L356,2068.3672 M343,2049.3672 L369,2049.3672 M356,2068.3672 L343,2083.3672 M356,2068.3672 L369,2083.3672 " fill="none" filter="url(#fkcknukm9rv0a)" style="stroke: #A80036; stroke-width: 2.0;"/><text fill="#000000" font-family="sans-serif" font-size="14" lengthAdjust="spacingAndGlyphs" textLength="54" x="541" y="82.9951">mukesh</text><ellipse cx="571" cy="13" fill="#FEFECE" filter="url(#fkcknukm9rv0a)" rx="8" ry="8" style="stroke: #A80036; stroke-width: 2.0;"/><path d="M571,21 L571,48 M558,29 L584,29 M571,48 L558,63 M571,48 L584,63 " fill="none" filter="url(#fkcknukm9rv0a)" style="stroke: #A80036; stroke-width: 2.0;"/><text fill="#000000" font-family="sans-serif" font-size="14" lengthAdjust="spacingAndGlyphs" textLength="54" x="541" y="2020.0654">mukesh</text><ellipse cx="571" cy="2033.3672" fill="#FEFECE" filter="url(#fkcknukm9rv0a)" rx="8" ry="8" style="stroke: #A80036; stroke-width: 2.0;"/><path d="M571,2041.3672 L571,2068.3672 M558,2049.3672 L584,2049.3672 M571,2068.3672 L558,2083.3672 M571,2068.3672 L584,2083.3672 " fill="none" filter="url(#fkcknukm9rv0a)" style="stroke: #A80036; stroke-width: 2.0;"/><text fill="#000000" font-family="sans-serif" font-size="14" lengthAdjust="spacingAndGlyphs" textLength="77" x="861.5" y="82.9951">seenivasan</text><ellipse cx="903" cy="13" fill="#FEFECE" filter="url(#fkcknukm9rv0a)" rx="8" ry="8" style="stroke: #A80036; stroke-width: 2.0;"/><path d="M903,21 L903,48 M890,29 L916,29 M903,48 L890,63 M903,48 L916,63 " fill="none" filter="url(#fkcknukm9rv0a)" style="stroke: #A80036; stroke-width: 2.0;"/><text fill="#000000" font-family="sans-serif" font-size="14" lengthAdjust="spacingAndGlyphs" textLength="77" x="861.5" y="2020.0654">seenivasan</text><ellipse cx="903" cy="2033.3672" fill="#FEFECE" filter="url(#fkcknukm9rv0a)" rx="8" ry="8" style="stroke: #A80036; stroke-width: 2.0;"/><path d="M903,2041.3672 L903,2068.3672 M890,2049.3672 L916,2049.3672 M903,2068.3672 L890,2083.3672 M903,2068.3672 L916,2083.3672 " fill="none" filter="url(#fkcknukm9rv0a)" style="stroke: #A80036; stroke-width: 2.0;"/><text fill="#000000" font-family="sans-serif" font-size="14" lengthAdjust="spacingAndGlyphs" textLength="53" x="1456.5" y="82.9951">revathy</text><ellipse cx="1486" cy="13" fill="#FEFECE" filter="url(#fkcknukm9rv0a)" rx="8" ry="8" style="stroke: #A80036; stroke-width: 2.0;"/><path d="M1486,21 L1486,48 M1473,29 L1499,29 M1486,48 L1473,63 M1486,48 L1499,63 " fill="none" filter="url(#fkcknukm9rv0a)" style="stroke: #A80036; stroke-width: 2.0;"/><text fill="#000000" font-family="sans-serif" font-size="14" lengthAdjust="spacingAndGlyphs" textLength="53" x="1456.5" y="2020.0654">revathy</text><ellipse cx="1486" cy="2033.3672" fill="#FEFECE" filter="url(#fkcknukm9rv0a)" rx="8" ry="8" style="stroke: #A80036; stroke-width: 2.0;"/><path d="M1486,2041.3672 L1486,2068.3672 M1473,2049.3672 L1499,2049.3672 M1486,2068.3672 L1473,2083.3672 M1486,2068.3672 L1499,2083.3672 " fill="none" filter="url(#fkcknukm9rv0a)" style="stroke: #A80036; stroke-width: 2.0;"/><text fill="#000000" font-family="sans-serif" font-size="14" lengthAdjust="spacingAndGlyphs" textLength="47" x="2152.5" y="82.9951">prabhu</text><ellipse cx="2179" cy="13" fill="#FEFECE" filter="url(#fkcknukm9rv0a)" rx="8" ry="8" style="stroke: #A80036; stroke-width: 2.0;"/><path d="M2179,21 L2179,48 M2166,29 L2192,29 M2179,48 L2166,63 M2179,48 L2192,63 " fill="none" filter="url(#fkcknukm9rv0a)" style="stroke: #A80036; stroke-width: 2.0;"/><text fill="#000000" font-family="sans-serif" font-size="14" lengthAdjust="spacingAndGlyphs" textLength="47" x="2152.5" y="2020.0654">prabhu</text><ellipse cx="2179" cy="2033.3672" fill="#FEFECE" filter="url(#fkcknukm9rv0a)" rx="8" ry="8" style="stroke: #A80036; stroke-width: 2.0;"/><path d="M2179,2041.3672 L2179,2068.3672 M2166,2049.3672 L2192,2049.3672 M2179,2068.3672 L2166,2083.3672 M2179,2068.3672 L2192,2083.3672 " fill="none" filter="url(#fkcknukm9rv0a)" style="stroke: #A80036; stroke-width: 2.0;"/><text fill="#000000" font-family="sans-serif" font-size="14" lengthAdjust="spacingAndGlyphs" textLength="59" x="2515.5" y="82.9951">murugan</text><ellipse cx="2548" cy="13" fill="#FEFECE" filter="url(#fkcknukm9rv0a)" rx="8" ry="8" style="stroke: #A80036; stroke-width: 2.0;"/><path d="M2548,21 L2548,48 M2535,29 L2561,29 M2548,48 L2535,63 M2548,48 L2561,63 " fill="none" filter="url(#fkcknukm9rv0a)" style="stroke: #A80036; stroke-width: 2.0;"/><text fill="#000000" font-family="sans-serif" font-size="14" lengthAdjust="spacingAndGlyphs" textLength="59" x="2515.5" y="2020.0654">murugan</text><ellipse cx="2548" cy="2033.3672" fill="#FEFECE" filter="url(#fkcknukm9rv0a)" rx="8" ry="8" style="stroke: #A80036; stroke-width: 2.0;"/><path d="M2548,2041.3672 L2548,2068.3672 M2535,2049.3672 L2561,2049.3672 M2548,2068.3672 L2535,2083.3672 M2548,2068.3672 L2561,2083.3672 " fill="none" filter="url(#fkcknukm9rv0a)" style="stroke: #A80036; stroke-width: 2.0;"/><text fill="#000000" font-family="sans-serif" font-size="14" lengthAdjust="spacingAndGlyphs" textLength="27" x="2935.5" y="82.9951">siva</text><ellipse cx="2952" cy="13" fill="#FEFECE" filter="url(#fkcknukm9rv0a)" rx="8" ry="8" style="stroke: #A80036; stroke-width: 2.0;"/><path d="M2952,21 L2952,48 M2939,29 L2965,29 M2952,48 L2939,63 M2952,48 L2965,63 " fill="none" filter="url(#fkcknukm9rv0a)" style="stroke: #A80036; stroke-width: 2.0;"/><text fill="#000000" font-family="sans-serif" font-size="14" lengthAdjust="spacingAndGlyphs" textLength="27" x="2935.5" y="2020.0654">siva</text><ellipse cx="2952" cy="2033.3672" fill="#FEFECE" filter="url(#fkcknukm9rv0a)" rx="8" ry="8" style="stroke: #A80036; stroke-width: 2.0;"/><path d="M2952,2041.3672 L2952,2068.3672 M2939,2049.3672 L2965,2049.3672 M2952,2068.3672 L2939,2083.3672 M2952,2068.3672 L2965,2083.3672 " fill="none" filter="url(#fkcknukm9rv0a)" style="stroke: #A80036; stroke-width: 2.0;"/><rect fill="#FFFFFF" filter="url(#fkcknukm9rv0a)" height="29.1328" style="stroke: #A80036; stroke-width: 1.0;" width="10" x="65.5" y="117.4297"/><rect fill="#FFFFFF" filter="url(#fkcknukm9rv0a)" height="29.1328" style="stroke: #A80036; stroke-width: 1.0;" width="10" x="65.5" y="1960.9375"/><rect fill="#FFFFFF" filter="url(#fkcknukm9rv0a)" height="203.9297" style="stroke: #A80036; stroke-width: 1.0;" width="10" x="160" y="146.5625"/><polygon fill="#A80036" points="344,113.4297,354,117.4297,344,121.4297,348,117.4297" style="stroke: #A80036; stroke-width: 1.0;"/><line style="stroke: #A80036; stroke-width: 1.0;" x1="75.5" x2="350" y1="117.4297" y2="117.4297"/><text fill="#000000" font-family="sans-serif" font-size="13" lengthAdjust="spacingAndGlyphs" textLength="158" x="82.5" y="112.3638">Project requriement info</text><polygon fill="#A80036" points="81.5,142.5625,71.5,146.5625,81.5,150.5625,77.5,146.5625" style="stroke: #A80036; stroke-width: 1.0;"/><line style="stroke: #A80036; stroke-width: 1.0; stroke-dasharray: 2.0,2.0;" x1="75.5" x2="355" y1="146.5625" y2="146.5625"/><text fill="#000000" font-family="sans-serif" font-size="13" lengthAdjust="spacingAndGlyphs" textLength="172" x="87.5" y="141.4966">co-ordinate team meeting</text><polygon fill="#A80036" points="344,171.6953,354,175.6953,344,179.6953,348,175.6953" style="stroke: #A80036; stroke-width: 1.0;"/><line style="stroke: #A80036; stroke-width: 1.0;" x1="170" x2="350" y1="175.6953" y2="175.6953"/><text fill="#000000" font-family="sans-serif" font-size="13" lengthAdjust="spacingAndGlyphs" textLength="162" x="177" y="170.6294">set process and manage</text><polygon fill="#A80036" points="559,200.8281,569,204.8281,559,208.8281,563,204.8281" style="stroke: #A80036; stroke-width: 1.0;"/><line style="stroke: #A80036; stroke-width: 1.0;" x1="170" x2="565" y1="204.8281" y2="204.8281"/><text fill="#000000" font-family="sans-serif" font-size="13" lengthAdjust="spacingAndGlyphs" textLength="261" x="177" y="199.7622">co-ordinate the project and deliverables</text><polygon fill="#A80036" points="891,229.9609,901,233.9609,891,237.9609,895,233.9609" style="stroke: #A80036; stroke-width: 1.0;"/><line style="stroke: #A80036; stroke-width: 1.0;" x1="170" x2="897" y1="233.9609" y2="233.9609"/><text fill="#000000" font-family="sans-serif" font-size="13" lengthAdjust="spacingAndGlyphs" textLength="165" x="177" y="228.895">App server management</text><polygon fill="#A80036" points="1474,259.0938,1484,263.0938,1474,267.0938,1478,263.0938" style="stroke: #A80036; stroke-width: 1.0;"/><line style="stroke: #A80036; stroke-width: 1.0;" x1="170" x2="1480" y1="263.0938" y2="263.0938"/><text fill="#000000" font-family="sans-serif" font-size="13" lengthAdjust="spacingAndGlyphs" textLength="187" x="177" y="258.0278">VBA script and data mapping</text><polygon fill="#A80036" points="2167,288.2266,2177,292.2266,2167,296.2266,2171,292.2266" style="stroke: #A80036; stroke-width: 1.0;"/><line style="stroke: #A80036; stroke-width: 1.0;" x1="170" x2="2173" y1="292.2266" y2="292.2266"/><text fill="#000000" font-family="sans-serif" font-size="13" lengthAdjust="spacingAndGlyphs" textLength="177" x="177" y="287.1606">plugin design and template</text><polygon fill="#A80036" points="2536,317.3594,2546,321.3594,2536,325.3594,2540,321.3594" style="stroke: #A80036; stroke-width: 1.0;"/><line style="stroke: #A80036; stroke-width: 1.0;" x1="170" x2="2542" y1="321.3594" y2="321.3594"/><text fill="#000000" font-family="sans-serif" font-size="13" lengthAdjust="spacingAndGlyphs" textLength="244" x="177" y="316.2935">App container maintance and support</text><polygon fill="#A80036" points="2940,346.4922,2950,350.4922,2940,354.4922,2944,350.4922" style="stroke: #A80036; stroke-width: 1.0;"/><line style="stroke: #A80036; stroke-width: 1.0;" x1="165" x2="2946" y1="350.4922" y2="350.4922"/><text fill="#000000" font-family="sans-serif" font-size="13" lengthAdjust="spacingAndGlyphs" textLength="291" x="172" y="345.4263">Plugin and App container connection protocol</text><line style="stroke: #A80036; stroke-width: 1.0;" x1="356" x2="398" y1="379.625" y2="379.625"/><line style="stroke: #A80036; stroke-width: 1.0;" x1="398" x2="398" y1="379.625" y2="392.625"/><line style="stroke: #A80036; stroke-width: 1.0;" x1="357" x2="398" y1="392.625" y2="392.625"/><polygon fill="#A80036" points="367,388.625,357,392.625,367,396.625,363,392.625" style="stroke: #A80036; stroke-width: 1.0;"/><text fill="#000000" font-family="sans-serif" font-size="13" lengthAdjust="spacingAndGlyphs" textLength="158" x="363" y="374.5591">Prepare the project plan</text><line style="stroke: #A80036; stroke-width: 1.0;" x1="356" x2="398" y1="421.7578" y2="421.7578"/><line style="stroke: #A80036; stroke-width: 1.0;" x1="398" x2="398" y1="421.7578" y2="434.7578"/><line style="stroke: #A80036; stroke-width: 1.0;" x1="357" x2="398" y1="434.7578" y2="434.7578"/><polygon fill="#A80036" points="367,430.7578,357,434.7578,367,438.7578,363,434.7578" style="stroke: #A80036; stroke-width: 1.0;"/><text fill="#000000" font-family="sans-serif" font-size="13" lengthAdjust="spacingAndGlyphs" textLength="201" x="363" y="416.6919">set action items and deliveries</text><line style="stroke: #A80036; stroke-width: 1.0;" x1="356" x2="398" y1="463.8906" y2="463.8906"/><line style="stroke: #A80036; stroke-width: 1.0;" x1="398" x2="398" y1="463.8906" y2="476.8906"/><line style="stroke: #A80036; stroke-width: 1.0;" x1="357" x2="398" y1="476.8906" y2="476.8906"/><polygon fill="#A80036" points="367,472.8906,357,476.8906,367,480.8906,363,476.8906" style="stroke: #A80036; stroke-width: 1.0;"/><text fill="#000000" font-family="sans-serif" font-size="13" lengthAdjust="spacingAndGlyphs" textLength="133" x="363" y="458.8247">Manage the process</text><line style="stroke: #A80036; stroke-width: 1.0;" x1="571" x2="613" y1="506.0234" y2="506.0234"/><line style="stroke: #A80036; stroke-width: 1.0;" x1="613" x2="613" y1="506.0234" y2="519.0234"/><line style="stroke: #A80036; stroke-width: 1.0;" x1="572" x2="613" y1="519.0234" y2="519.0234"/><polygon fill="#A80036" points="582,515.0234,572,519.0234,582,523.0234,578,519.0234" style="stroke: #A80036; stroke-width: 1.0;"/><text fill="#000000" font-family="sans-serif" font-size="13" lengthAdjust="spacingAndGlyphs" textLength="318" x="578" y="500.9575">Interact with team and get regular status update</text><line style="stroke: #A80036; stroke-width: 1.0;" x1="571" x2="613" y1="548.1563" y2="548.1563"/><line style="stroke: #A80036; stroke-width: 1.0;" x1="613" x2="613" y1="548.1563" y2="561.1563"/><line style="stroke: #A80036; stroke-width: 1.0;" x1="572" x2="613" y1="561.1563" y2="561.1563"/><polygon fill="#A80036" points="582,557.1563,572,561.1563,582,565.1563,578,561.1563" style="stroke: #A80036; stroke-width: 1.0;"/><text fill="#000000" font-family="sans-serif" font-size="13" lengthAdjust="spacingAndGlyphs" textLength="164" x="578" y="543.0903">Follow-up to get to-do list</text><line style="stroke: #A80036; stroke-width: 1.0;" x1="571" x2="613" y1="590.2891" y2="590.2891"/><line style="stroke: #A80036; stroke-width: 1.0;" x1="613" x2="613" y1="590.2891" y2="603.2891"/><line style="stroke: #A80036; stroke-width: 1.0;" x1="572" x2="613" y1="603.2891" y2="603.2891"/><polygon fill="#A80036" points="582,599.2891,572,603.2891,582,607.2891,578,603.2891" style="stroke: #A80036; stroke-width: 1.0;"/><text fill="#000000" font-family="sans-serif" font-size="13" lengthAdjust="spacingAndGlyphs" textLength="173" x="578" y="585.2231">Update the Tracking sheet</text><line style="stroke: #A80036; stroke-width: 1.0;" x1="571" x2="613" y1="632.4219" y2="632.4219"/><line style="stroke: #A80036; stroke-width: 1.0;" x1="613" x2="613" y1="632.4219" y2="645.4219"/><line style="stroke: #A80036; stroke-width: 1.0;" x1="572" x2="613" y1="645.4219" y2="645.4219"/><polygon fill="#A80036" points="582,641.4219,572,645.4219,582,649.4219,578,645.4219" style="stroke: #A80036; stroke-width: 1.0;"/><text fill="#000000" font-family="sans-serif" font-size="13" lengthAdjust="spacingAndGlyphs" textLength="176" x="578" y="627.356">Support team to use Gitlab</text><line style="stroke: #A80036; stroke-width: 1.0;" x1="571" x2="613" y1="674.5547" y2="674.5547"/><line style="stroke: #A80036; stroke-width: 1.0;" x1="613" x2="613" y1="674.5547" y2="687.5547"/><line style="stroke: #A80036; stroke-width: 1.0;" x1="572" x2="613" y1="687.5547" y2="687.5547"/><polygon fill="#A80036" points="582,683.5547,572,687.5547,582,691.5547,578,687.5547" style="stroke: #A80036; stroke-width: 1.0;"/><text fill="#000000" font-family="sans-serif" font-size="13" lengthAdjust="spacingAndGlyphs" textLength="235" x="578" y="669.4888">Ensure everyone follow the process</text><line style="stroke: #A80036; stroke-width: 1.0;" x1="903" x2="945" y1="716.6875" y2="716.6875"/><line style="stroke: #A80036; stroke-width: 1.0;" x1="945" x2="945" y1="716.6875" y2="729.6875"/><line style="stroke: #A80036; stroke-width: 1.0;" x1="904" x2="945" y1="729.6875" y2="729.6875"/><polygon fill="#A80036" points="914,725.6875,904,729.6875,914,733.6875,910,729.6875" style="stroke: #A80036; stroke-width: 1.0;"/><text fill="#000000" font-family="sans-serif" font-size="13" lengthAdjust="spacingAndGlyphs" textLength="167" x="910" y="711.6216">Prepare the node.js script</text><line style="stroke: #A80036; stroke-width: 1.0;" x1="903" x2="945" y1="758.8203" y2="758.8203"/><line style="stroke: #A80036; stroke-width: 1.0;" x1="945" x2="945" y1="758.8203" y2="771.8203"/><line style="stroke: #A80036; stroke-width: 1.0;" x1="904" x2="945" y1="771.8203" y2="771.8203"/><polygon fill="#A80036" points="914,767.8203,904,771.8203,914,775.8203,910,771.8203" style="stroke: #A80036; stroke-width: 1.0;"/><text fill="#000000" font-family="sans-serif" font-size="13" lengthAdjust="spacingAndGlyphs" textLength="569" x="910" y="753.7544">Preapre and table/list that maintain template vs db vs no.of devices list w.r.t timestamp</text><line style="stroke: #A80036; stroke-width: 1.0;" x1="903" x2="945" y1="800.9531" y2="800.9531"/><line style="stroke: #A80036; stroke-width: 1.0;" x1="945" x2="945" y1="800.9531" y2="813.9531"/><line style="stroke: #A80036; stroke-width: 1.0;" x1="904" x2="945" y1="813.9531" y2="813.9531"/><polygon fill="#A80036" points="914,809.9531,904,813.9531,914,817.9531,910,813.9531" style="stroke: #A80036; stroke-width: 1.0;"/><text fill="#000000" font-family="sans-serif" font-size="13" lengthAdjust="spacingAndGlyphs" textLength="315" x="910" y="795.8872">Https post and response implementation access</text><line style="stroke: #A80036; stroke-width: 1.0;" x1="903" x2="945" y1="843.0859" y2="843.0859"/><line style="stroke: #A80036; stroke-width: 1.0;" x1="945" x2="945" y1="843.0859" y2="856.0859"/><line style="stroke: #A80036; stroke-width: 1.0;" x1="904" x2="945" y1="856.0859" y2="856.0859"/><polygon fill="#A80036" points="914,852.0859,904,856.0859,914,860.0859,910,856.0859" style="stroke: #A80036; stroke-width: 1.0;"/><text fill="#000000" font-family="sans-serif" font-size="13" lengthAdjust="spacingAndGlyphs" textLength="224" x="910" y="838.02">Prepare Authentication algorithem</text><line style="stroke: #A80036; stroke-width: 1.0;" x1="903" x2="945" y1="885.2188" y2="885.2188"/><line style="stroke: #A80036; stroke-width: 1.0;" x1="945" x2="945" y1="885.2188" y2="898.2188"/><line style="stroke: #A80036; stroke-width: 1.0;" x1="904" x2="945" y1="898.2188" y2="898.2188"/><polygon fill="#A80036" points="914,894.2188,904,898.2188,914,902.2188,910,898.2188" style="stroke: #A80036; stroke-width: 1.0;"/><text fill="#000000" font-family="sans-serif" font-size="13" lengthAdjust="spacingAndGlyphs" textLength="276" x="910" y="880.1528">Collect and decode the querys from Plugin</text><line style="stroke: #A80036; stroke-width: 1.0;" x1="903" x2="945" y1="927.3516" y2="927.3516"/><line style="stroke: #A80036; stroke-width: 1.0;" x1="945" x2="945" y1="927.3516" y2="940.3516"/><line style="stroke: #A80036; stroke-width: 1.0;" x1="904" x2="945" y1="940.3516" y2="940.3516"/><polygon fill="#A80036" points="914,936.3516,904,940.3516,914,944.3516,910,940.3516" style="stroke: #A80036; stroke-width: 1.0;"/><text fill="#000000" font-family="sans-serif" font-size="13" lengthAdjust="spacingAndGlyphs" textLength="100" x="910" y="922.2856">Access Influxdb</text><line style="stroke: #A80036; stroke-width: 1.0;" x1="903" x2="945" y1="969.4844" y2="969.4844"/><line style="stroke: #A80036; stroke-width: 1.0;" x1="945" x2="945" y1="969.4844" y2="982.4844"/><line style="stroke: #A80036; stroke-width: 1.0;" x1="904" x2="945" y1="982.4844" y2="982.4844"/><polygon fill="#A80036" points="914,978.4844,904,982.4844,914,986.4844,910,982.4844" style="stroke: #A80036; stroke-width: 1.0;"/><text fill="#000000" font-family="sans-serif" font-size="13" lengthAdjust="spacingAndGlyphs" textLength="499" x="910" y="964.4185">Preare query (One data (median) /per day) based on the plugin's data query</text><line style="stroke: #A80036; stroke-width: 1.0;" x1="903" x2="945" y1="1011.6172" y2="1011.6172"/><line style="stroke: #A80036; stroke-width: 1.0;" x1="945" x2="945" y1="1011.6172" y2="1024.6172"/><line style="stroke: #A80036; stroke-width: 1.0;" x1="904" x2="945" y1="1024.6172" y2="1024.6172"/><polygon fill="#A80036" points="914,1020.6172,904,1024.6172,914,1028.6172,910,1024.6172" style="stroke: #A80036; stroke-width: 1.0;"/><text fill="#000000" font-family="sans-serif" font-size="13" lengthAdjust="spacingAndGlyphs" textLength="479" x="910" y="1006.5513">Forward the data to plugin via https response (if valid connection is there)</text><line style="stroke: #A80036; stroke-width: 1.0;" x1="2179" x2="2221" y1="1053.75" y2="1053.75"/><line style="stroke: #A80036; stroke-width: 1.0;" x1="2221" x2="2221" y1="1053.75" y2="1066.75"/><line style="stroke: #A80036; stroke-width: 1.0;" x1="2180" x2="2221" y1="1066.75" y2="1066.75"/><polygon fill="#A80036" points="2190,1062.75,2180,1066.75,2190,1070.75,2186,1066.75" style="stroke: #A80036; stroke-width: 1.0;"/><text fill="#000000" font-family="sans-serif" font-size="13" lengthAdjust="spacingAndGlyphs" textLength="303" x="2186" y="1048.6841">Prepare the plugin layout and template format</text><line style="stroke: #A80036; stroke-width: 1.0;" x1="2179" x2="2221" y1="1095.8828" y2="1095.8828"/><line style="stroke: #A80036; stroke-width: 1.0;" x1="2221" x2="2221" y1="1095.8828" y2="1108.8828"/><line style="stroke: #A80036; stroke-width: 1.0;" x1="2180" x2="2221" y1="1108.8828" y2="1108.8828"/><polygon fill="#A80036" points="2190,1104.8828,2180,1108.8828,2190,1112.8828,2186,1108.8828" style="stroke: #A80036; stroke-width: 1.0;"/><text fill="#000000" font-family="sans-serif" font-size="13" lengthAdjust="spacingAndGlyphs" textLength="355" x="2186" y="1090.8169">Prepare the relaiable structure to interact with macros</text><line style="stroke: #A80036; stroke-width: 1.0;" x1="2179" x2="2221" y1="1138.0156" y2="1138.0156"/><line style="stroke: #A80036; stroke-width: 1.0;" x1="2221" x2="2221" y1="1138.0156" y2="1151.0156"/><line style="stroke: #A80036; stroke-width: 1.0;" x1="2180" x2="2221" y1="1151.0156" y2="1151.0156"/><polygon fill="#A80036" points="2190,1147.0156,2180,1151.0156,2190,1155.0156,2186,1151.0156" style="stroke: #A80036; stroke-width: 1.0;"/><text fill="#000000" font-family="sans-serif" font-size="13" lengthAdjust="spacingAndGlyphs" textLength="220" x="2186" y="1132.9497">Prepare the plugin installation doc</text><line style="stroke: #A80036; stroke-width: 1.0;" x1="2179" x2="2221" y1="1180.1484" y2="1180.1484"/><line style="stroke: #A80036; stroke-width: 1.0;" x1="2221" x2="2221" y1="1180.1484" y2="1193.1484"/><line style="stroke: #A80036; stroke-width: 1.0;" x1="2180" x2="2221" y1="1193.1484" y2="1193.1484"/><polygon fill="#A80036" points="2190,1189.1484,2180,1193.1484,2190,1197.1484,2186,1193.1484" style="stroke: #A80036; stroke-width: 1.0;"/><text fill="#000000" font-family="sans-serif" font-size="13" lengthAdjust="spacingAndGlyphs" textLength="167" x="2186" y="1175.0825">Prepare plugin user guide</text><line style="stroke: #A80036; stroke-width: 1.0;" x1="1486" x2="1528" y1="1222.2813" y2="1222.2813"/><line style="stroke: #A80036; stroke-width: 1.0;" x1="1528" x2="1528" y1="1222.2813" y2="1235.2813"/><line style="stroke: #A80036; stroke-width: 1.0;" x1="1487" x2="1528" y1="1235.2813" y2="1235.2813"/><polygon fill="#A80036" points="1497,1231.2813,1487,1235.2813,1497,1239.2813,1493,1235.2813" style="stroke: #A80036; stroke-width: 1.0;"/><text fill="#000000" font-family="sans-serif" font-size="13" lengthAdjust="spacingAndGlyphs" textLength="221" x="1493" y="1217.2153">Active code to interact with Plugin</text><line style="stroke: #A80036; stroke-width: 1.0;" x1="1486" x2="1528" y1="1264.4141" y2="1264.4141"/><line style="stroke: #A80036; stroke-width: 1.0;" x1="1528" x2="1528" y1="1264.4141" y2="1277.4141"/><line style="stroke: #A80036; stroke-width: 1.0;" x1="1487" x2="1528" y1="1277.4141" y2="1277.4141"/><polygon fill="#A80036" points="1497,1273.4141,1487,1277.4141,1497,1281.4141,1493,1277.4141" style="stroke: #A80036; stroke-width: 1.0;"/><text fill="#000000" font-family="sans-serif" font-size="13" lengthAdjust="spacingAndGlyphs" textLength="385" x="1493" y="1259.3481">VBA macros to frame the connection query and data query</text><line style="stroke: #A80036; stroke-width: 1.0;" x1="1486" x2="1528" y1="1306.5469" y2="1306.5469"/><line style="stroke: #A80036; stroke-width: 1.0;" x1="1528" x2="1528" y1="1306.5469" y2="1319.5469"/><line style="stroke: #A80036; stroke-width: 1.0;" x1="1487" x2="1528" y1="1319.5469" y2="1319.5469"/><polygon fill="#A80036" points="1497,1315.5469,1487,1319.5469,1497,1323.5469,1493,1319.5469" style="stroke: #A80036; stroke-width: 1.0;"/><text fill="#000000" font-family="sans-serif" font-size="13" lengthAdjust="spacingAndGlyphs" textLength="369" x="1493" y="1301.481">Prepare https packet to send the query to App container</text><line style="stroke: #A80036; stroke-width: 1.0;" x1="1486" x2="1528" y1="1348.6797" y2="1348.6797"/><line style="stroke: #A80036; stroke-width: 1.0;" x1="1528" x2="1528" y1="1348.6797" y2="1361.6797"/><line style="stroke: #A80036; stroke-width: 1.0;" x1="1487" x2="1528" y1="1361.6797" y2="1361.6797"/><polygon fill="#A80036" points="1497,1357.6797,1487,1361.6797,1497,1365.6797,1493,1361.6797" style="stroke: #A80036; stroke-width: 1.0;"/><text fill="#000000" font-family="sans-serif" font-size="13" lengthAdjust="spacingAndGlyphs" textLength="337" x="1493" y="1343.6138">Get and decode the validate https response packet</text><line style="stroke: #A80036; stroke-width: 1.0;" x1="1486" x2="1528" y1="1390.8125" y2="1390.8125"/><line style="stroke: #A80036; stroke-width: 1.0;" x1="1528" x2="1528" y1="1390.8125" y2="1403.8125"/><line style="stroke: #A80036; stroke-width: 1.0;" x1="1487" x2="1528" y1="1403.8125" y2="1403.8125"/><polygon fill="#A80036" points="1497,1399.8125,1487,1403.8125,1497,1407.8125,1493,1403.8125" style="stroke: #A80036; stroke-width: 1.0;"/><text fill="#000000" font-family="sans-serif" font-size="13" lengthAdjust="spacingAndGlyphs" textLength="336" x="1493" y="1385.7466">VBA macros to plot the data in respective template</text><line style="stroke: #A80036; stroke-width: 1.0;" x1="2548" x2="2590" y1="1432.9453" y2="1432.9453"/><line style="stroke: #A80036; stroke-width: 1.0;" x1="2590" x2="2590" y1="1432.9453" y2="1445.9453"/><line style="stroke: #A80036; stroke-width: 1.0;" x1="2549" x2="2590" y1="1445.9453" y2="1445.9453"/><polygon fill="#A80036" points="2559,1441.9453,2549,1445.9453,2559,1449.9453,2555,1445.9453" style="stroke: #A80036; stroke-width: 1.0;"/><text fill="#000000" font-family="sans-serif" font-size="13" lengthAdjust="spacingAndGlyphs" textLength="390" x="2555" y="1427.8794">Prepare and maintain the app container to run node.js script</text><line style="stroke: #A80036; stroke-width: 1.0;" x1="2548" x2="2590" y1="1475.0781" y2="1475.0781"/><line style="stroke: #A80036; stroke-width: 1.0;" x1="2590" x2="2590" y1="1475.0781" y2="1488.0781"/><line style="stroke: #A80036; stroke-width: 1.0;" x1="2549" x2="2590" y1="1488.0781" y2="1488.0781"/><polygon fill="#A80036" points="2559,1484.0781,2549,1488.0781,2559,1492.0781,2555,1488.0781" style="stroke: #A80036; stroke-width: 1.0;"/><text fill="#000000" font-family="sans-serif" font-size="13" lengthAdjust="spacingAndGlyphs" textLength="227" x="2555" y="1470.0122">Prepare the secure Https interface</text><line style="stroke: #A80036; stroke-width: 1.0;" x1="2548" x2="2590" y1="1517.2109" y2="1517.2109"/><line style="stroke: #A80036; stroke-width: 1.0;" x1="2590" x2="2590" y1="1517.2109" y2="1530.2109"/><line style="stroke: #A80036; stroke-width: 1.0;" x1="2549" x2="2590" y1="1530.2109" y2="1530.2109"/><polygon fill="#A80036" points="2559,1526.2109,2549,1530.2109,2559,1534.2109,2555,1530.2109" style="stroke: #A80036; stroke-width: 1.0;"/><text fill="#000000" font-family="sans-serif" font-size="13" lengthAdjust="spacingAndGlyphs" textLength="247" x="2555" y="1512.145">Mechanisam to maintain the users list</text><line style="stroke: #A80036; stroke-width: 1.0;" x1="2548" x2="2590" y1="1559.3438" y2="1559.3438"/><line style="stroke: #A80036; stroke-width: 1.0;" x1="2590" x2="2590" y1="1559.3438" y2="1572.3438"/><line style="stroke: #A80036; stroke-width: 1.0;" x1="2549" x2="2590" y1="1572.3438" y2="1572.3438"/><polygon fill="#A80036" points="2559,1568.3438,2549,1572.3438,2559,1576.3438,2555,1572.3438" style="stroke: #A80036; stroke-width: 1.0;"/><text fill="#000000" font-family="sans-serif" font-size="13" lengthAdjust="spacingAndGlyphs" textLength="352" x="2555" y="1554.2778">Maybe another space for data normalization container</text><line style="stroke: #A80036; stroke-width: 1.0;" x1="2952" x2="2994" y1="1601.4766" y2="1601.4766"/><line style="stroke: #A80036; stroke-width: 1.0;" x1="2994" x2="2994" y1="1601.4766" y2="1614.4766"/><line style="stroke: #A80036; stroke-width: 1.0;" x1="2953" x2="2994" y1="1614.4766" y2="1614.4766"/><polygon fill="#A80036" points="2963,1610.4766,2953,1614.4766,2963,1618.4766,2959,1614.4766" style="stroke: #A80036; stroke-width: 1.0;"/><text fill="#000000" font-family="sans-serif" font-size="13" lengthAdjust="spacingAndGlyphs" textLength="488" x="2959" y="1596.4106">Look at improve the security between app container and plugin connection</text><line style="stroke: #A80036; stroke-width: 1.0;" x1="2952" x2="2994" y1="1643.6094" y2="1643.6094"/><line style="stroke: #A80036; stroke-width: 1.0;" x1="2994" x2="2994" y1="1643.6094" y2="1656.6094"/><line style="stroke: #A80036; stroke-width: 1.0;" x1="2953" x2="2994" y1="1656.6094" y2="1656.6094"/><polygon fill="#A80036" points="2963,1652.6094,2953,1656.6094,2963,1660.6094,2959,1656.6094" style="stroke: #A80036; stroke-width: 1.0;"/><text fill="#000000" font-family="sans-serif" font-size="13" lengthAdjust="spacingAndGlyphs" textLength="401" x="2959" y="1638.5435">Research and Frame the proper HTTPs communication model</text><line style="stroke: #A80036; stroke-width: 1.0;" x1="2952" x2="2994" y1="1685.7422" y2="1685.7422"/><line style="stroke: #A80036; stroke-width: 1.0;" x1="2994" x2="2994" y1="1685.7422" y2="1698.7422"/><line style="stroke: #A80036; stroke-width: 1.0;" x1="2953" x2="2994" y1="1698.7422" y2="1698.7422"/><polygon fill="#A80036" points="2963,1694.7422,2953,1698.7422,2963,1702.7422,2959,1698.7422" style="stroke: #A80036; stroke-width: 1.0;"/><text fill="#000000" font-family="sans-serif" font-size="13" lengthAdjust="spacingAndGlyphs" textLength="479" x="2959" y="1680.6763">Preapare the list of standard error code and response codes need to use.</text><polygon fill="#A80036" points="559,1723.875,569,1727.875,559,1731.875,563,1727.875" style="stroke: #A80036; stroke-width: 1.0;"/><line style="stroke: #A80036; stroke-width: 1.0;" x1="356" x2="565" y1="1727.875" y2="1727.875"/><text fill="#000000" font-family="sans-serif" font-size="13" lengthAdjust="spacingAndGlyphs" textLength="154" x="363" y="1722.8091">Support in co-ordination</text><polygon fill="#A80036" points="1497,1753.0078,1487,1757.0078,1497,1761.0078,1493,1757.0078" style="stroke: #A80036; stroke-width: 1.0;"/><line style="stroke: #A80036; stroke-width: 1.0;" x1="1491" x2="2178" y1="1757.0078" y2="1757.0078"/><text fill="#000000" font-family="sans-serif" font-size="13" lengthAdjust="spacingAndGlyphs" textLength="243" x="1503" y="1751.9419">provide formatted templates location</text><polygon fill="#A80036" points="1497,1782.1406,1487,1786.1406,1497,1790.1406,1493,1786.1406" style="stroke: #A80036; stroke-width: 1.0;"/><line style="stroke: #A80036; stroke-width: 1.0;" x1="1491" x2="2178" y1="1786.1406" y2="1786.1406"/><text fill="#000000" font-family="sans-serif" font-size="13" lengthAdjust="spacingAndGlyphs" textLength="174" x="1503" y="1781.0747">provide buttons actions list</text><polygon fill="#A80036" points="914,1811.2734,904,1815.2734,914,1819.2734,910,1815.2734" style="stroke: #A80036; stroke-width: 1.0;"/><line style="stroke: #A80036; stroke-width: 1.0;" x1="908" x2="1485" y1="1815.2734" y2="1815.2734"/><text fill="#000000" font-family="sans-serif" font-size="13" lengthAdjust="spacingAndGlyphs" textLength="322" x="920" y="1810.2075">provide the connection query with user/password</text><polygon fill="#A80036" points="1474,1840.4063,1484,1844.4063,1474,1848.4063,1478,1844.4063" style="stroke: #A80036; stroke-width: 1.0;"/><line style="stroke: #A80036; stroke-width: 1.0;" x1="903" x2="1480" y1="1844.4063" y2="1844.4063"/><text fill="#000000" font-family="sans-serif" font-size="13" lengthAdjust="spacingAndGlyphs" textLength="411" x="910" y="1839.3403">Authenticate the connection and provide token else error code</text><polygon fill="#A80036" points="2167,1869.5391,2177,1873.5391,2167,1877.5391,2171,1873.5391" style="stroke: #A80036; stroke-width: 1.0;"/><line style="stroke: #A80036; stroke-width: 1.0;" x1="1486" x2="2173" y1="1873.5391" y2="1873.5391"/><text fill="#000000" font-family="sans-serif" font-size="13" lengthAdjust="spacingAndGlyphs" textLength="336" x="1493" y="1868.4731">Forward connection pass or error code info to plugin</text><polygon fill="#A80036" points="914,1898.6719,904,1902.6719,914,1906.6719,910,1902.6719" style="stroke: #A80036; stroke-width: 1.0;"/><line style="stroke: #A80036; stroke-width: 1.0;" x1="908" x2="1485" y1="1902.6719" y2="1902.6719"/><text fill="#000000" font-family="sans-serif" font-size="13" lengthAdjust="spacingAndGlyphs" textLength="514" x="920" y="1897.606">provide the data request query format with token, template name, date range</text><polygon fill="#A80036" points="1474,1927.8047,1484,1931.8047,1474,1935.8047,1478,1931.8047" style="stroke: #A80036; stroke-width: 1.0;"/><line style="stroke: #A80036; stroke-width: 1.0;" x1="903" x2="1480" y1="1931.8047" y2="1931.8047"/><text fill="#000000" font-family="sans-serif" font-size="13" lengthAdjust="spacingAndGlyphs" textLength="475" x="910" y="1926.7388">check for validity and get the required data from db and forward to plugin</text><polygon fill="#A80036" points="2167,1956.9375,2177,1960.9375,2167,1964.9375,2171,1960.9375" style="stroke: #A80036; stroke-width: 1.0;"/><line style="stroke: #A80036; stroke-width: 1.0;" x1="1486" x2="2173" y1="1960.9375" y2="1960.9375"/><text fill="#000000" font-family="sans-serif" font-size="13" lengthAdjust="spacingAndGlyphs" textLength="669" x="1493" y="1955.8716">At plugin VBA script decode the data and put in respective cell. Plugin ensure that and end the process</text><polygon fill="#A80036" points="81.5,1986.0703,71.5,1990.0703,81.5,1994.0703,77.5,1990.0703" style="stroke: #A80036; stroke-width: 1.0;"/><line style="stroke: #A80036; stroke-width: 1.0;" x1="75.5" x2="570" y1="1990.0703" y2="1990.0703"/><text fill="#000000" font-family="sans-serif" font-size="13" font-weight="bold" lengthAdjust="spacingAndGlyphs" textLength="121" x="87.5" y="1985.0044">Project Delivery</text><!--MD5=[520f2e5a3cb3d47c652b38af10214f69]
@startuml
participant "windsor project" as windsor
Participant role
actor vel
actor mukesh
actor seenivasan
actor revathy
actor prabhu
actor murugan
actor siva


windsor -> vel : Project requriement info
activate windsor
return co-ordinate team meeting
deactivate windsor


activate role
role -> vel : set process and manage
role -> mukesh : co-ordinate the project and deliverables
role -> seenivasan : App server management
role -> revathy : VBA script and data mapping
role -> prabhu : plugin design and template
role -> murugan : App container maintance and support
role -> siva : Plugin and App container connection protocol
deactivate role


vel -> vel : Prepare the project plan
vel -> vel : set action items and deliveries
vel -> vel : Manage the process

mukesh -> mukesh : Interact with team and get regular status update
mukesh -> mukesh : Follow-up to get to-do list
mukesh -> mukesh : Update the Tracking sheet
mukesh -> mukesh : Support team to use Gitlab
mukesh -> mukesh : Ensure everyone follow the process

seenivasan -> seenivasan : Prepare the node.js script
seenivasan -> seenivasan : Preapre and table/list that maintain template vs db vs no.of devices list w.r.t timestamp
seenivasan -> seenivasan : Https post and response implementation access
seenivasan -> seenivasan : Prepare Authentication algorithem
seenivasan -> seenivasan : Collect and decode the querys from Plugin
seenivasan -> seenivasan : Access Influxdb
seenivasan -> seenivasan : Preare query (One data (median) /per day) based on the plugin's data query
seenivasan -> seenivasan : Forward the data to plugin via https response (if valid connection is there)

prabhu -> prabhu : Prepare the plugin layout and template format
prabhu -> prabhu : Prepare the relaiable structure to interact with macros
prabhu -> prabhu : Prepare the plugin installation doc
prabhu -> prabhu : Prepare plugin user guide

revathy -> revathy : Active code to interact with Plugin 
revathy -> revathy : VBA macros to frame the connection query and data query
revathy -> revathy : Prepare https packet to send the query to App container
revathy -> revathy : Get and decode the validate https response packet
revathy -> revathy : VBA macros to plot the data in respective template

murugan -> murugan : Prepare and maintain the app container to run node.js script
murugan -> murugan : Prepare the secure Https interface
murugan -> murugan : Mechanisam to maintain the users list
murugan -> murugan : Maybe another space for data normalization container  

siva -> siva : Look at improve the security between app container and plugin connection
siva -> siva : Research and Frame the proper HTTPs communication model
siva -> siva : Preapare the list of standard error code and response codes need to use.

vel -> mukesh : Support in co-ordination 

prabhu -> revathy : provide formatted templates location
prabhu -> revathy : provide buttons actions list

revathy -> seenivasan : provide the connection query with user/password
seenivasan -> revathy : Authenticate the connection and provide token else error code
revathy -> prabhu : Forward connection pass or error code info to plugin
revathy -> seenivasan : provide the data request query format with token, template name, date range
seenivasan -> revathy : check for validity and get the required data from db and forward to plugin
revathy -> prabhu : At plugin VBA script decode the data and put in respective cell. Plugin ensure that and end the process 

activate windsor
mukesh -> windsor : **Project Delivery**
deactivate windsor
@enduml

PlantUML version 1.2020.09beta15(Unknown compile time)
(GPL source distribution)
Java Runtime: Java(TM) SE Runtime Environment
JVM: Java HotSpot(TM) 64-Bit Server VM
Java Version: 14.0.1+7
Operating System: Linux
Default Encoding: UTF-8
Language: en
Country: US
--></g></svg>